<svg width="34" height="34" viewBox="0 0 34 34" fill="none" xmlns="http://www.w3.org/2000/svg">
<path d="M7.61054 34H0.561607V11.2999H7.61054V34ZM4.08228 8.20344C1.82826 8.20344 0 6.33644 0 4.08237C1.61333e-08 2.99966 0.430096 1.96129 1.19567 1.1957C1.96125 0.430105 2.99959 0 4.08228 0C5.16496 0 6.20331 0.430105 6.96888 1.1957C7.73446 1.96129 8.16455 2.99966 8.16455 4.08237C8.16455 6.33644 6.33554 8.20344 4.08228 8.20344ZM33.9924 34H26.9587V22.9498C26.9587 20.3162 26.9055 16.9389 23.2938 16.9389C19.6289 16.9389 19.0673 19.8001 19.0673 22.76V34H12.026V11.2999H18.7865V14.3964H18.8852C19.8263 12.6129 22.125 10.7307 25.5546 10.7307C32.6886 10.7307 34 15.4286 34 21.5305V34H33.9924Z" fill="#2E2E2E"/>
</svg>
