<svg width="464" height="22" viewBox="0 0 464 22" fill="none" xmlns="http://www.w3.org/2000/svg">
<path d="M3 16.0028C13.8987 16.0028 23.1434 13.0892 33.6276 9.5014C35.9512 8.70625 51.0507 3.7317 52.0984 7.74705C53.1672 11.8438 58.6004 12.2877 62.3704 12.2877C66.3284 12.2877 70.2864 12.2877 74.2444 12.2877C80.1973 12.2877 84.9718 8.21324 91.2074 8.57263C97.6937 8.94646 102.777 14.1453 109.867 14.1453C115.465 14.1453 121.546 12.7015 127.207 11.8749C136.473 10.5219 145.47 10.4302 154.819 10.4302C158.969 10.4302 160.873 14.1453 164.996 14.1453C169.217 14.1453 172.982 16.0028 176.87 16.0028C183.184 16.0028 188.62 13.1327 194.681 12.1845C205.475 10.496 210.796 11.0492 220.126 15.59C225.499 18.2053 238.445 14.4434 242.555 10.843C244.319 9.29766 248.992 14.2642 250.659 15.1772C255.739 17.9583 259.347 17.8603 265.078 17.8603C276.91 17.8603 287.126 12.2877 299.004 12.2877C307.773 12.2877 309.17 22.8864 320.207 17.4476C326.556 14.319 351.932 2.55746 357.149 7.12787C365.806 14.7114 371.935 14.1453 382.876 14.1453C391.037 14.1453 413.71 1.56504 419.347 9.5014C428.059 21.7673 451.95 9.6069 461 3" stroke="#8C8C8C" stroke-width="6" stroke-linecap="round"/>
</svg>
