<svg width="34" height="35" viewBox="0 0 34 35" fill="none" xmlns="http://www.w3.org/2000/svg">
<path d="M34 31.3125C34 33.0729 32.5729 34.5 30.8125 34.5H3.1875C1.42707 34.5 0 33.0729 0 31.3125V13.8293C5.87174e-06 13.346 0.109935 12.869 0.321471 12.4344C0.533008 11.9998 0.840611 11.619 1.22101 11.3208C2.87539 10.0239 4.24256 8.97232 12.1249 3.25169C13.2422 2.43708 15.4592 0.476967 17 0.50021C18.5405 0.476702 20.7583 2.43741 21.8751 3.25162C29.7566 8.97166 31.1257 10.0247 32.779 11.3208C33.1594 11.619 33.467 11.9998 33.6785 12.4344C33.8901 12.869 34 13.346 34 13.8293V31.3125ZM29.6394 18.2567C29.4692 18.0091 29.128 17.9516 28.8864 18.1301C27.3693 19.2505 25.2034 20.8331 21.8751 23.2486C20.7578 24.0631 18.5408 26.0231 17 25.9998C15.4586 26.0227 13.2441 24.0645 12.1249 23.2486C8.79704 20.8334 6.63086 19.2507 5.11361 18.1301C4.87196 17.9516 4.53083 18.0091 4.36063 18.2567L3.7582 19.133C3.68011 19.2465 3.64919 19.386 3.67198 19.5218C3.69477 19.6577 3.76947 19.7794 3.88032 19.8613C5.40016 20.9835 7.56281 22.5634 10.8731 24.9658C12.2194 25.9474 14.6266 28.1409 17 28.1249C19.3723 28.141 21.7787 25.9487 23.1268 24.9658C26.4372 22.5633 28.5999 20.9834 30.1196 19.8613C30.2305 19.7794 30.3052 19.6577 30.328 19.5218C30.3507 19.386 30.3198 19.2465 30.2417 19.133L29.6394 18.2567Z" fill="#2E2E2E"/>
</svg>
